<mxfile host="app.diagrams.net" modified="2021-10-29T17:53:47.336Z" agent="5.0 (Windows)" etag="GUoxjsckjLAyVvoF845k" version="15.6.2" type="github">
  <diagram name="Page-1" id="c4acf3e9-155e-7222-9cf6-157b1a14988f">
    <mxGraphModel dx="1422" dy="752" grid="1" gridSize="10" guides="1" tooltips="1" connect="1" arrows="1" fold="1" page="1" pageScale="1" pageWidth="850" pageHeight="1100" background="none" math="0" shadow="0">
      <root>
        <mxCell id="0" />
        <mxCell id="1" parent="0" />
        <mxCell id="VRiyqRG7SxgQbr_X3jZr-10" style="edgeStyle=orthogonalEdgeStyle;rounded=0;orthogonalLoop=1;jettySize=auto;html=1;exitX=1;exitY=0.5;exitDx=0;exitDy=0;entryX=0;entryY=0.5;entryDx=0;entryDy=0;endArrow=none;endFill=0;" parent="1" source="17acba5748e5396b-20" target="5d2195bd80daf111-14" edge="1">
          <mxGeometry relative="1" as="geometry" />
        </mxCell>
        <mxCell id="VRiyqRG7SxgQbr_X3jZr-11" style="edgeStyle=orthogonalEdgeStyle;rounded=0;orthogonalLoop=1;jettySize=auto;html=1;exitX=1;exitY=0.75;exitDx=0;exitDy=0;entryX=0;entryY=0.5;entryDx=0;entryDy=0;endArrow=none;endFill=0;" parent="1" source="17acba5748e5396b-20" target="VRiyqRG7SxgQbr_X3jZr-6" edge="1">
          <mxGeometry relative="1" as="geometry" />
        </mxCell>
        <mxCell id="VRiyqRG7SxgQbr_X3jZr-12" style="edgeStyle=orthogonalEdgeStyle;rounded=0;orthogonalLoop=1;jettySize=auto;html=1;exitX=1;exitY=0.25;exitDx=0;exitDy=0;entryX=0;entryY=0.5;entryDx=0;entryDy=0;endArrow=none;endFill=0;" parent="1" source="17acba5748e5396b-20" target="VRiyqRG7SxgQbr_X3jZr-1" edge="1">
          <mxGeometry relative="1" as="geometry">
            <Array as="points">
              <mxPoint x="300" y="343" />
              <mxPoint x="300" y="298" />
              <mxPoint x="620" y="298" />
              <mxPoint x="620" y="353" />
            </Array>
          </mxGeometry>
        </mxCell>
        <mxCell id="17acba5748e5396b-20" value="&lt;div&gt;Order&lt;/div&gt;" style="swimlane;html=1;fontStyle=0;childLayout=stackLayout;horizontal=1;startSize=26;fillColor=none;horizontalStack=0;resizeParent=1;resizeLast=0;collapsible=1;marginBottom=0;swimlaneFillColor=#ffffff;rounded=0;shadow=0;comic=0;labelBackgroundColor=none;strokeWidth=1;fontFamily=Verdana;fontSize=10;align=center;" parent="1" vertex="1">
          <mxGeometry x="230" y="329.5" width="50" height="52" as="geometry" />
        </mxCell>
        <mxCell id="17acba5748e5396b-21" value="Priority" style="text;html=1;strokeColor=none;fillColor=none;align=left;verticalAlign=top;spacingLeft=4;spacingRight=4;whiteSpace=wrap;overflow=hidden;rotatable=0;points=[[0,0.5],[1,0.5]];portConstraint=eastwest;" parent="17acba5748e5396b-20" vertex="1">
          <mxGeometry y="26" width="50" height="26" as="geometry" />
        </mxCell>
        <mxCell id="17acba5748e5396b-30" value="Customer" style="swimlane;html=1;fontStyle=0;childLayout=stackLayout;horizontal=1;startSize=26;fillColor=none;horizontalStack=0;resizeParent=1;resizeLast=0;collapsible=1;marginBottom=0;swimlaneFillColor=#ffffff;rounded=0;shadow=0;comic=0;labelBackgroundColor=none;strokeWidth=1;fontFamily=Verdana;fontSize=10;align=center;" parent="1" vertex="1">
          <mxGeometry x="170" y="419.5" width="100" height="80" as="geometry" />
        </mxCell>
        <mxCell id="17acba5748e5396b-32" value="Hurry or not" style="text;html=1;strokeColor=none;fillColor=none;align=left;verticalAlign=top;spacingLeft=4;spacingRight=4;whiteSpace=wrap;overflow=hidden;rotatable=0;points=[[0,0.5],[1,0.5]];portConstraint=eastwest;" parent="17acba5748e5396b-30" vertex="1">
          <mxGeometry y="26" width="100" height="26" as="geometry" />
        </mxCell>
        <mxCell id="17acba5748e5396b-31" value="Order No &amp;gt; 10?" style="text;html=1;strokeColor=none;fillColor=none;align=left;verticalAlign=top;spacingLeft=4;spacingRight=4;whiteSpace=wrap;overflow=hidden;rotatable=0;points=[[0,0.5],[1,0.5]];portConstraint=eastwest;" parent="17acba5748e5396b-30" vertex="1">
          <mxGeometry y="52" width="100" height="26" as="geometry" />
        </mxCell>
        <mxCell id="5d2195bd80daf111-15" value="&lt;p style=&quot;margin: 0px ; margin-top: 4px ; text-align: center&quot;&gt;&lt;b&gt;Inventory&amp;nbsp; management&lt;/b&gt;&lt;/p&gt;&lt;hr size=&quot;1&quot;&gt;&lt;p style=&quot;margin: 0px ; margin-left: 4px&quot;&gt;&lt;br&gt;&lt;/p&gt;&lt;hr size=&quot;1&quot;&gt;" style="verticalAlign=top;align=left;overflow=fill;fontSize=12;fontFamily=Helvetica;html=1;rounded=0;shadow=0;comic=0;labelBackgroundColor=none;strokeWidth=1;" parent="1" vertex="1">
          <mxGeometry x="480" y="510" width="140" height="50" as="geometry" />
        </mxCell>
        <mxCell id="VRiyqRG7SxgQbr_X3jZr-4" style="edgeStyle=orthogonalEdgeStyle;rounded=0;orthogonalLoop=1;jettySize=auto;html=1;startArrow=none;endArrow=none;endFill=0;" parent="1" source="5d2195bd80daf111-14" target="5d2195bd80daf111-18" edge="1">
          <mxGeometry relative="1" as="geometry">
            <mxPoint x="350" y="375" as="sourcePoint" />
          </mxGeometry>
        </mxCell>
        <mxCell id="VRiyqRG7SxgQbr_X3jZr-13" style="edgeStyle=orthogonalEdgeStyle;rounded=0;orthogonalLoop=1;jettySize=auto;html=1;exitX=1;exitY=0.5;exitDx=0;exitDy=0;entryX=0;entryY=0.75;entryDx=0;entryDy=0;endArrow=none;endFill=0;" parent="1" source="5d2195bd80daf111-18" target="VRiyqRG7SxgQbr_X3jZr-1" edge="1">
          <mxGeometry relative="1" as="geometry" />
        </mxCell>
        <mxCell id="5d2195bd80daf111-18" value="&lt;p style=&quot;margin: 0px ; margin-top: 4px ; text-align: center&quot;&gt;&lt;b&gt;Factory&lt;br&gt;&lt;/b&gt;&lt;/p&gt;&lt;hr size=&quot;1&quot;&gt;&amp;nbsp;Manufacturing&lt;hr size=&quot;1&quot;&gt;&lt;p style=&quot;margin: 0px ; margin-left: 4px&quot;&gt;machining&lt;br&gt;&lt;/p&gt;&lt;p style=&quot;margin: 0px ; margin-left: 4px&quot;&gt;heat &lt;br&gt;&lt;/p&gt;&lt;p style=&quot;margin: 0px ; margin-left: 4px&quot;&gt;surface treatment&lt;br&gt;&lt;/p&gt;" style="verticalAlign=top;align=left;overflow=fill;fontSize=12;fontFamily=Helvetica;html=1;rounded=0;shadow=0;comic=0;labelBackgroundColor=none;strokeWidth=1;" parent="1" vertex="1">
          <mxGeometry x="480" y="318" width="120" height="113" as="geometry" />
        </mxCell>
        <mxCell id="VRiyqRG7SxgQbr_X3jZr-2" style="edgeStyle=orthogonalEdgeStyle;rounded=0;orthogonalLoop=1;jettySize=auto;html=1;exitX=1;exitY=0.5;exitDx=0;exitDy=0;entryX=0;entryY=0.5;entryDx=0;entryDy=0;endArrow=none;endFill=0;" parent="1" source="5d2195bd80daf111-19" target="17acba5748e5396b-20" edge="1">
          <mxGeometry relative="1" as="geometry">
            <mxPoint x="200" y="375" as="targetPoint" />
          </mxGeometry>
        </mxCell>
        <mxCell id="VRiyqRG7SxgQbr_X3jZr-5" value="&amp;nbsp;&amp;nbsp;&amp;nbsp;&amp;nbsp;&amp;nbsp;&amp;nbsp;&amp;nbsp;&amp;nbsp;&amp;nbsp;&amp;nbsp;&amp;nbsp;&amp;nbsp;&amp;nbsp;&amp;nbsp;&amp;nbsp;&amp;nbsp; *" style="edgeLabel;html=1;align=center;verticalAlign=middle;resizable=0;points=[];strokeColor=none;labelBackgroundColor=none;" parent="VRiyqRG7SxgQbr_X3jZr-2" vertex="1" connectable="0">
          <mxGeometry x="0.225" y="3" relative="1" as="geometry">
            <mxPoint x="-8" y="-6" as="offset" />
          </mxGeometry>
        </mxCell>
        <mxCell id="VRiyqRG7SxgQbr_X3jZr-28" style="edgeStyle=orthogonalEdgeStyle;rounded=0;orthogonalLoop=1;jettySize=auto;html=1;exitX=0.5;exitY=1;exitDx=0;exitDy=0;entryX=0.5;entryY=0;entryDx=0;entryDy=0;endArrow=none;endFill=0;" parent="1" source="5d2195bd80daf111-19" target="VRiyqRG7SxgQbr_X3jZr-27" edge="1">
          <mxGeometry relative="1" as="geometry" />
        </mxCell>
        <mxCell id="5d2195bd80daf111-19" value="&lt;p style=&quot;margin: 0px ; margin-top: 4px ; text-align: center&quot;&gt;&lt;b&gt;sales department&lt;/b&gt;&lt;/p&gt;&lt;hr size=&quot;1&quot;&gt;&lt;p style=&quot;margin: 0px ; margin-left: 4px&quot;&gt;&lt;br&gt;&lt;/p&gt;&lt;hr size=&quot;1&quot;&gt;&lt;p style=&quot;margin: 0px ; margin-left: 4px&quot;&gt;receive customer order&lt;/p&gt;&lt;p style=&quot;margin: 0px ; margin-left: 4px&quot;&gt;technical check&lt;br&gt;&lt;/p&gt;" style="verticalAlign=top;align=left;overflow=fill;fontSize=12;fontFamily=Helvetica;html=1;rounded=0;shadow=0;comic=0;labelBackgroundColor=none;strokeWidth=1;" parent="1" vertex="1">
          <mxGeometry x="40" y="315.25" width="130" height="98.5" as="geometry" />
        </mxCell>
        <mxCell id="VRiyqRG7SxgQbr_X3jZr-1" value="&lt;p style=&quot;margin: 0px ; margin-top: 4px ; text-align: center&quot;&gt;&lt;b&gt;Factory&lt;br&gt;&lt;/b&gt;&lt;/p&gt;&lt;hr size=&quot;1&quot;&gt;&amp;nbsp;Assembly&lt;hr size=&quot;1&quot;&gt;" style="verticalAlign=top;align=left;overflow=fill;fontSize=12;fontFamily=Helvetica;html=1;rounded=0;shadow=0;comic=0;labelBackgroundColor=none;strokeWidth=1;" parent="1" vertex="1">
          <mxGeometry x="640" y="318" width="70" height="70" as="geometry" />
        </mxCell>
        <mxCell id="VRiyqRG7SxgQbr_X3jZr-14" style="edgeStyle=orthogonalEdgeStyle;rounded=0;orthogonalLoop=1;jettySize=auto;html=1;exitX=1;exitY=0.5;exitDx=0;exitDy=0;endArrow=none;endFill=0;entryX=0;entryY=0.422;entryDx=0;entryDy=0;entryPerimeter=0;" parent="1" source="VRiyqRG7SxgQbr_X3jZr-6" target="5d2195bd80daf111-15" edge="1">
          <mxGeometry relative="1" as="geometry">
            <mxPoint x="480" y="523" as="targetPoint" />
          </mxGeometry>
        </mxCell>
        <mxCell id="VRiyqRG7SxgQbr_X3jZr-15" style="edgeStyle=orthogonalEdgeStyle;rounded=0;orthogonalLoop=1;jettySize=auto;html=1;exitX=0.75;exitY=0;exitDx=0;exitDy=0;entryX=0;entryY=1;entryDx=0;entryDy=0;endArrow=none;endFill=0;" parent="1" source="VRiyqRG7SxgQbr_X3jZr-6" target="VRiyqRG7SxgQbr_X3jZr-1" edge="1">
          <mxGeometry relative="1" as="geometry">
            <Array as="points">
              <mxPoint x="403" y="450" />
              <mxPoint x="675" y="450" />
              <mxPoint x="675" y="388" />
            </Array>
          </mxGeometry>
        </mxCell>
        <mxCell id="VRiyqRG7SxgQbr_X3jZr-6" value="&lt;div&gt;Sub-contract parts&lt;/div&gt;" style="html=1;rounded=0;shadow=0;comic=0;labelBackgroundColor=none;strokeWidth=1;fontFamily=Verdana;fontSize=10;align=center;" parent="1" vertex="1">
          <mxGeometry x="320" y="511" width="110" height="30" as="geometry" />
        </mxCell>
        <mxCell id="5d2195bd80daf111-14" value="In-house parts" style="html=1;rounded=0;shadow=0;comic=0;labelBackgroundColor=none;strokeWidth=1;fontFamily=Verdana;fontSize=10;align=center;" parent="1" vertex="1">
          <mxGeometry x="328" y="359.5" width="90" height="30" as="geometry" />
        </mxCell>
        <mxCell id="VRiyqRG7SxgQbr_X3jZr-16" style="edgeStyle=orthogonalEdgeStyle;rounded=0;orthogonalLoop=1;jettySize=auto;html=1;exitX=1;exitY=0.5;exitDx=0;exitDy=0;entryX=0;entryY=0.5;entryDx=0;entryDy=0;endArrow=none;endFill=0;" parent="1" source="17acba5748e5396b-32" target="17acba5748e5396b-21" edge="1">
          <mxGeometry relative="1" as="geometry" />
        </mxCell>
        <mxCell id="VRiyqRG7SxgQbr_X3jZr-17" value="&amp;nbsp;&amp;nbsp;&amp;nbsp;&amp;nbsp;&amp;nbsp;&amp;nbsp;&amp;nbsp;&amp;nbsp;&amp;nbsp;&amp;nbsp;&amp;nbsp;&amp;nbsp;&amp;nbsp;&amp;nbsp;&amp;nbsp;&amp;nbsp; *" style="edgeLabel;html=1;align=center;verticalAlign=middle;resizable=0;points=[];strokeColor=none;labelBackgroundColor=none;" parent="1" vertex="1" connectable="0">
          <mxGeometry x="199" y="397.5" as="geometry" />
        </mxCell>
        <mxCell id="VRiyqRG7SxgQbr_X3jZr-19" value="&amp;nbsp;&amp;nbsp;&amp;nbsp;&amp;nbsp;&amp;nbsp;&amp;nbsp;&amp;nbsp;&amp;nbsp;&amp;nbsp;&amp;nbsp;&amp;nbsp;&amp;nbsp;&amp;nbsp;&amp;nbsp;&amp;nbsp;&amp;nbsp; *" style="edgeLabel;html=1;align=center;verticalAlign=middle;resizable=0;points=[];strokeColor=none;labelBackgroundColor=none;" parent="1" vertex="1" connectable="0">
          <mxGeometry x="297" y="366.5" as="geometry" />
        </mxCell>
        <mxCell id="VRiyqRG7SxgQbr_X3jZr-20" value="&amp;nbsp;&amp;nbsp;&amp;nbsp;&amp;nbsp; *" style="edgeLabel;html=1;align=center;verticalAlign=middle;resizable=0;points=[];strokeColor=none;labelBackgroundColor=none;" parent="1" vertex="1" connectable="0">
          <mxGeometry x="276" y="365.5" as="geometry" />
        </mxCell>
        <mxCell id="VRiyqRG7SxgQbr_X3jZr-21" value="&amp;nbsp;&amp;nbsp;&amp;nbsp;&amp;nbsp; *" style="edgeLabel;html=1;align=center;verticalAlign=middle;resizable=0;points=[];strokeColor=none;labelBackgroundColor=none;" parent="1" vertex="1" connectable="0">
          <mxGeometry x="276" y="395.5" as="geometry" />
        </mxCell>
        <mxCell id="VRiyqRG7SxgQbr_X3jZr-22" value="&amp;nbsp;&amp;nbsp;&amp;nbsp;&amp;nbsp; *" style="edgeLabel;html=1;align=center;verticalAlign=middle;resizable=0;points=[];strokeColor=none;labelBackgroundColor=none;" parent="1" vertex="1" connectable="0">
          <mxGeometry x="307" y="516.5" as="geometry" />
        </mxCell>
        <mxCell id="VRiyqRG7SxgQbr_X3jZr-23" value="&amp;nbsp;&amp;nbsp;&amp;nbsp;&amp;nbsp; *" style="edgeLabel;html=1;align=center;verticalAlign=middle;resizable=0;points=[];strokeColor=none;labelBackgroundColor=none;" parent="1" vertex="1" connectable="0">
          <mxGeometry x="414" y="369.5" as="geometry" />
        </mxCell>
        <mxCell id="VRiyqRG7SxgQbr_X3jZr-24" value="&amp;nbsp;&amp;nbsp;&amp;nbsp;&amp;nbsp; *" style="edgeLabel;html=1;align=center;verticalAlign=middle;resizable=0;points=[];strokeColor=none;labelBackgroundColor=none;" parent="1" vertex="1" connectable="0">
          <mxGeometry x="467" y="368.5" as="geometry" />
        </mxCell>
        <mxCell id="VRiyqRG7SxgQbr_X3jZr-25" value="&amp;nbsp;&amp;nbsp;&amp;nbsp;&amp;nbsp; *" style="edgeLabel;html=1;align=center;verticalAlign=middle;resizable=0;points=[];strokeColor=none;labelBackgroundColor=none;" parent="1" vertex="1" connectable="0">
          <mxGeometry x="627" y="364.5" as="geometry" />
        </mxCell>
        <mxCell id="VRiyqRG7SxgQbr_X3jZr-26" value="&amp;nbsp;&amp;nbsp;&amp;nbsp;&amp;nbsp; *" style="edgeLabel;html=1;align=center;verticalAlign=middle;resizable=0;points=[];strokeColor=none;labelBackgroundColor=none;" parent="1" vertex="1" connectable="0">
          <mxGeometry x="662" y="392.5" as="geometry" />
        </mxCell>
        <mxCell id="upZt14hZmClzutdR7epI-5" style="edgeStyle=orthogonalEdgeStyle;rounded=0;orthogonalLoop=1;jettySize=auto;html=1;exitX=1;exitY=0.75;exitDx=0;exitDy=0;entryX=0;entryY=0.75;entryDx=0;entryDy=0;endArrow=none;endFill=0;" edge="1" parent="1" source="VRiyqRG7SxgQbr_X3jZr-27" target="5d2195bd80daf111-15">
          <mxGeometry relative="1" as="geometry" />
        </mxCell>
        <mxCell id="upZt14hZmClzutdR7epI-8" style="edgeStyle=orthogonalEdgeStyle;rounded=0;orthogonalLoop=1;jettySize=auto;html=1;exitX=1;exitY=0.25;exitDx=0;exitDy=0;endArrow=none;endFill=0;entryX=0.11;entryY=1.096;entryDx=0;entryDy=0;entryPerimeter=0;" edge="1" parent="1" source="VRiyqRG7SxgQbr_X3jZr-27" target="17acba5748e5396b-31">
          <mxGeometry relative="1" as="geometry" />
        </mxCell>
        <mxCell id="VRiyqRG7SxgQbr_X3jZr-27" value="&lt;div&gt;Invoice&lt;/div&gt;" style="html=1;rounded=0;shadow=0;comic=0;labelBackgroundColor=none;strokeWidth=1;fontFamily=Verdana;fontSize=10;align=center;" parent="1" vertex="1">
          <mxGeometry x="50" y="518" width="110" height="40" as="geometry" />
        </mxCell>
        <mxCell id="upZt14hZmClzutdR7epI-3" value="&amp;nbsp;&amp;nbsp;&amp;nbsp;&amp;nbsp; *" style="edgeLabel;html=1;align=center;verticalAlign=middle;resizable=0;points=[];strokeColor=none;labelBackgroundColor=none;" vertex="1" connectable="0" parent="1">
          <mxGeometry x="156" y="526.5" as="geometry" />
        </mxCell>
        <mxCell id="upZt14hZmClzutdR7epI-4" value="&amp;nbsp;&amp;nbsp;&amp;nbsp;&amp;nbsp; *" style="edgeLabel;html=1;align=center;verticalAlign=middle;resizable=0;points=[];strokeColor=none;labelBackgroundColor=none;" vertex="1" connectable="0" parent="1">
          <mxGeometry x="426" y="522.5" as="geometry" />
        </mxCell>
        <mxCell id="upZt14hZmClzutdR7epI-6" value="&amp;nbsp;&amp;nbsp;&amp;nbsp;&amp;nbsp; *" style="edgeLabel;html=1;align=center;verticalAlign=middle;resizable=0;points=[];strokeColor=none;labelBackgroundColor=none;" vertex="1" connectable="0" parent="1">
          <mxGeometry x="155" y="553.5" as="geometry" />
        </mxCell>
        <mxCell id="upZt14hZmClzutdR7epI-16" style="edgeStyle=orthogonalEdgeStyle;rounded=0;orthogonalLoop=1;jettySize=auto;html=1;exitX=0.5;exitY=0.5;exitDx=0;exitDy=0;exitPerimeter=0;endArrow=none;endFill=0;" edge="1" parent="1" source="upZt14hZmClzutdR7epI-13" target="upZt14hZmClzutdR7epI-15">
          <mxGeometry relative="1" as="geometry" />
        </mxCell>
        <mxCell id="upZt14hZmClzutdR7epI-13" value="customer" style="shape=umlActor;verticalLabelPosition=bottom;verticalAlign=top;html=1;outlineConnect=0;" vertex="1" parent="1">
          <mxGeometry x="50" y="60" width="40" height="80" as="geometry" />
        </mxCell>
        <mxCell id="upZt14hZmClzutdR7epI-21" style="edgeStyle=none;rounded=0;orthogonalLoop=1;jettySize=auto;html=1;exitX=1;exitY=0.5;exitDx=0;exitDy=0;dashed=1;endArrow=none;endFill=0;" edge="1" parent="1" source="upZt14hZmClzutdR7epI-15" target="upZt14hZmClzutdR7epI-18">
          <mxGeometry relative="1" as="geometry" />
        </mxCell>
        <mxCell id="upZt14hZmClzutdR7epI-22" style="edgeStyle=none;rounded=0;orthogonalLoop=1;jettySize=auto;html=1;exitX=1;exitY=1;exitDx=0;exitDy=0;entryX=0.067;entryY=0.325;entryDx=0;entryDy=0;entryPerimeter=0;dashed=1;endArrow=none;endFill=0;" edge="1" parent="1" source="upZt14hZmClzutdR7epI-15" target="upZt14hZmClzutdR7epI-19">
          <mxGeometry relative="1" as="geometry" />
        </mxCell>
        <mxCell id="upZt14hZmClzutdR7epI-24" style="edgeStyle=none;rounded=0;orthogonalLoop=1;jettySize=auto;html=1;exitX=1;exitY=0;exitDx=0;exitDy=0;entryX=0;entryY=0.5;entryDx=0;entryDy=0;endArrow=none;endFill=0;" edge="1" parent="1" source="upZt14hZmClzutdR7epI-15" target="upZt14hZmClzutdR7epI-17">
          <mxGeometry relative="1" as="geometry" />
        </mxCell>
        <mxCell id="upZt14hZmClzutdR7epI-36" style="edgeStyle=none;rounded=0;orthogonalLoop=1;jettySize=auto;html=1;exitX=0.5;exitY=1;exitDx=0;exitDy=0;entryX=0;entryY=0.5;entryDx=0;entryDy=0;endArrow=none;endFill=0;" edge="1" parent="1" source="upZt14hZmClzutdR7epI-15" target="upZt14hZmClzutdR7epI-35">
          <mxGeometry relative="1" as="geometry" />
        </mxCell>
        <mxCell id="upZt14hZmClzutdR7epI-15" value="customer order" style="ellipse;whiteSpace=wrap;html=1;" vertex="1" parent="1">
          <mxGeometry x="140" y="75" width="71" height="50" as="geometry" />
        </mxCell>
        <mxCell id="upZt14hZmClzutdR7epI-25" style="edgeStyle=none;rounded=0;orthogonalLoop=1;jettySize=auto;html=1;exitX=1;exitY=0.5;exitDx=0;exitDy=0;endArrow=none;endFill=0;" edge="1" parent="1" source="upZt14hZmClzutdR7epI-17" target="upZt14hZmClzutdR7epI-23">
          <mxGeometry relative="1" as="geometry" />
        </mxCell>
        <mxCell id="upZt14hZmClzutdR7epI-17" value="Priority" style="ellipse;whiteSpace=wrap;html=1;" vertex="1" parent="1">
          <mxGeometry x="260" y="30" width="60" height="40" as="geometry" />
        </mxCell>
        <mxCell id="upZt14hZmClzutdR7epI-26" style="edgeStyle=none;rounded=0;orthogonalLoop=1;jettySize=auto;html=1;exitX=1;exitY=0.5;exitDx=0;exitDy=0;endArrow=none;endFill=0;" edge="1" parent="1" source="upZt14hZmClzutdR7epI-18" target="upZt14hZmClzutdR7epI-23">
          <mxGeometry relative="1" as="geometry" />
        </mxCell>
        <mxCell id="upZt14hZmClzutdR7epI-29" style="edgeStyle=none;rounded=0;orthogonalLoop=1;jettySize=auto;html=1;exitX=1;exitY=0.5;exitDx=0;exitDy=0;endArrow=none;endFill=0;" edge="1" parent="1" source="upZt14hZmClzutdR7epI-18" target="upZt14hZmClzutdR7epI-28">
          <mxGeometry relative="1" as="geometry" />
        </mxCell>
        <mxCell id="upZt14hZmClzutdR7epI-18" value="In-house parts" style="ellipse;whiteSpace=wrap;html=1;" vertex="1" parent="1">
          <mxGeometry x="260" y="78" width="60" height="40" as="geometry" />
        </mxCell>
        <mxCell id="upZt14hZmClzutdR7epI-27" style="edgeStyle=none;rounded=0;orthogonalLoop=1;jettySize=auto;html=1;exitX=1;exitY=0.5;exitDx=0;exitDy=0;entryX=0;entryY=1;entryDx=0;entryDy=0;endArrow=none;endFill=0;" edge="1" parent="1" source="upZt14hZmClzutdR7epI-19" target="upZt14hZmClzutdR7epI-23">
          <mxGeometry relative="1" as="geometry" />
        </mxCell>
        <mxCell id="upZt14hZmClzutdR7epI-34" style="edgeStyle=none;rounded=0;orthogonalLoop=1;jettySize=auto;html=1;exitX=1;exitY=0.5;exitDx=0;exitDy=0;entryX=0;entryY=0.5;entryDx=0;entryDy=0;endArrow=none;endFill=0;" edge="1" parent="1" source="upZt14hZmClzutdR7epI-19" target="upZt14hZmClzutdR7epI-33">
          <mxGeometry relative="1" as="geometry" />
        </mxCell>
        <mxCell id="upZt14hZmClzutdR7epI-19" value="Sub-contract parts" style="ellipse;whiteSpace=wrap;html=1;" vertex="1" parent="1">
          <mxGeometry x="260" y="130" width="60" height="40" as="geometry" />
        </mxCell>
        <mxCell id="upZt14hZmClzutdR7epI-23" value="Sales department" style="ellipse;whiteSpace=wrap;html=1;" vertex="1" parent="1">
          <mxGeometry x="387" y="38" width="84" height="40" as="geometry" />
        </mxCell>
        <mxCell id="upZt14hZmClzutdR7epI-32" style="edgeStyle=none;rounded=0;orthogonalLoop=1;jettySize=auto;html=1;exitX=1;exitY=0.5;exitDx=0;exitDy=0;entryX=0;entryY=0.5;entryDx=0;entryDy=0;endArrow=none;endFill=0;" edge="1" parent="1" source="upZt14hZmClzutdR7epI-28" target="upZt14hZmClzutdR7epI-30">
          <mxGeometry relative="1" as="geometry" />
        </mxCell>
        <mxCell id="upZt14hZmClzutdR7epI-28" value="&lt;div&gt;Factory&lt;/div&gt;&lt;div&gt;Manufacturing&lt;br&gt;&lt;/div&gt;" style="ellipse;whiteSpace=wrap;html=1;" vertex="1" parent="1">
          <mxGeometry x="389" y="90" width="84" height="40" as="geometry" />
        </mxCell>
        <mxCell id="upZt14hZmClzutdR7epI-30" value="&lt;div&gt;Factory&lt;/div&gt;&lt;div&gt;Assembly&lt;br&gt;&lt;/div&gt;" style="ellipse;whiteSpace=wrap;html=1;" vertex="1" parent="1">
          <mxGeometry x="500" y="90" width="84" height="40" as="geometry" />
        </mxCell>
        <mxCell id="upZt14hZmClzutdR7epI-33" value="Inventory management" style="ellipse;whiteSpace=wrap;html=1;" vertex="1" parent="1">
          <mxGeometry x="389" y="140" width="84" height="40" as="geometry" />
        </mxCell>
        <mxCell id="upZt14hZmClzutdR7epI-37" style="edgeStyle=none;rounded=0;orthogonalLoop=1;jettySize=auto;html=1;exitX=1;exitY=0.5;exitDx=0;exitDy=0;entryX=0;entryY=1;entryDx=0;entryDy=0;endArrow=none;endFill=0;" edge="1" parent="1" source="upZt14hZmClzutdR7epI-35" target="upZt14hZmClzutdR7epI-23">
          <mxGeometry relative="1" as="geometry" />
        </mxCell>
        <mxCell id="upZt14hZmClzutdR7epI-35" value="Invoice" style="ellipse;whiteSpace=wrap;html=1;" vertex="1" parent="1">
          <mxGeometry x="265" y="180" width="55" height="30" as="geometry" />
        </mxCell>
        <mxCell id="upZt14hZmClzutdR7epI-46" value="Customer" style="shape=umlLifeline;participant=umlActor;perimeter=lifelinePerimeter;whiteSpace=wrap;html=1;container=1;collapsible=0;recursiveResize=0;verticalAlign=top;spacingTop=36;outlineConnect=0;" vertex="1" parent="1">
          <mxGeometry x="70" y="570" width="20" height="510" as="geometry" />
        </mxCell>
        <mxCell id="upZt14hZmClzutdR7epI-47" value="&lt;div&gt;Factory&lt;/div&gt;&lt;div&gt;Manuafacturing&lt;/div&gt;" style="shape=umlLifeline;perimeter=lifelinePerimeter;whiteSpace=wrap;html=1;container=1;collapsible=0;recursiveResize=0;outlineConnect=0;" vertex="1" parent="1">
          <mxGeometry x="520" y="600" width="100" height="480" as="geometry" />
        </mxCell>
        <mxCell id="upZt14hZmClzutdR7epI-58" value="In-house part" style="html=1;verticalAlign=bottom;endArrow=block;rounded=0;" edge="1" parent="upZt14hZmClzutdR7epI-47" target="upZt14hZmClzutdR7epI-50">
          <mxGeometry x="0.0025" width="80" relative="1" as="geometry">
            <mxPoint x="50" y="220" as="sourcePoint" />
            <mxPoint x="130" y="220" as="targetPoint" />
            <mxPoint as="offset" />
          </mxGeometry>
        </mxCell>
        <mxCell id="upZt14hZmClzutdR7epI-48" value="Sales Department" style="shape=umlLifeline;participant=umlActor;perimeter=lifelinePerimeter;whiteSpace=wrap;html=1;container=1;collapsible=0;recursiveResize=0;verticalAlign=top;spacingTop=36;outlineConnect=0;" vertex="1" parent="1">
          <mxGeometry x="230" y="570" width="20" height="510" as="geometry" />
        </mxCell>
        <mxCell id="upZt14hZmClzutdR7epI-49" value="Inventory management" style="shape=umlLifeline;participant=umlActor;perimeter=lifelinePerimeter;whiteSpace=wrap;html=1;container=1;collapsible=0;recursiveResize=0;verticalAlign=top;spacingTop=36;outlineConnect=0;" vertex="1" parent="1">
          <mxGeometry x="390" y="570" width="20" height="510" as="geometry" />
        </mxCell>
        <mxCell id="upZt14hZmClzutdR7epI-50" value="&lt;div&gt;Factory&lt;/div&gt;&lt;div&gt;Assembly&lt;br&gt;&lt;/div&gt;" style="shape=umlLifeline;perimeter=lifelinePerimeter;whiteSpace=wrap;html=1;container=1;collapsible=0;recursiveResize=0;outlineConnect=0;" vertex="1" parent="1">
          <mxGeometry x="720" y="597.5" width="100" height="482.5" as="geometry" />
        </mxCell>
        <mxCell id="upZt14hZmClzutdR7epI-52" value="Order" style="html=1;verticalAlign=bottom;endArrow=block;rounded=0;" edge="1" parent="1" target="upZt14hZmClzutdR7epI-48">
          <mxGeometry width="80" relative="1" as="geometry">
            <mxPoint x="80" y="680" as="sourcePoint" />
            <mxPoint x="160" y="680" as="targetPoint" />
          </mxGeometry>
        </mxCell>
        <mxCell id="upZt14hZmClzutdR7epI-55" value="&lt;div&gt;Sub-contract parts needs&lt;br&gt;&lt;/div&gt;" style="html=1;verticalAlign=bottom;endArrow=block;rounded=0;" edge="1" parent="1" target="upZt14hZmClzutdR7epI-49">
          <mxGeometry width="80" relative="1" as="geometry">
            <mxPoint x="240" y="710" as="sourcePoint" />
            <mxPoint x="320" y="710" as="targetPoint" />
          </mxGeometry>
        </mxCell>
        <mxCell id="upZt14hZmClzutdR7epI-56" value="&lt;div&gt;Sub-contract parts&lt;br&gt;&lt;/div&gt;" style="html=1;verticalAlign=bottom;endArrow=block;rounded=0;" edge="1" parent="1" target="upZt14hZmClzutdR7epI-50">
          <mxGeometry x="-0.5129" width="80" relative="1" as="geometry">
            <mxPoint x="400" y="730" as="sourcePoint" />
            <mxPoint x="559.5" y="730" as="targetPoint" />
            <mxPoint as="offset" />
          </mxGeometry>
        </mxCell>
        <mxCell id="upZt14hZmClzutdR7epI-57" value="&lt;div&gt;In-house parts needs&lt;br&gt;&lt;/div&gt;" style="html=1;verticalAlign=bottom;endArrow=block;rounded=0;" edge="1" parent="1">
          <mxGeometry x="0.4568" width="80" relative="1" as="geometry">
            <mxPoint x="240" y="778.25" as="sourcePoint" />
            <mxPoint x="569.5" y="778.25" as="targetPoint" />
            <mxPoint as="offset" />
          </mxGeometry>
        </mxCell>
      </root>
    </mxGraphModel>
  </diagram>
</mxfile>
